# xmcd CD database file
#
# Track frame offsets:
#	150
#	4945
#	19677
#	35750
#	55455
#	83267
#	107975
#	121127
#	139362
#	156777
#
# Disc length: 2339 seconds
#
# Revision: 2
# Processed by: cddbd v1.5PL3 Copyright (c) Steve Scherf et al.
# Submitted via: CDex 1.51
#
DISCID=7d09210a
DTITLE=VICIOUS RUMORS - Digital Dictator
DYEAR=1987
DGENRE=Metal
TTITLE0=Replicant
TTITLE1=Digital Dictator
TTITLE2=Minute To Kill
TTITLE3=Towns On Fire
TTITLE4=Lady Took A Chance
TTITLE5=Worlds And Machines
TTITLE6=The Crest
TTITLE7=R.L.H.
TTITLE8=Condemned
TTITLE9=Out Of The Shadows
EXTD=YEAR: 1987
EXTT0=
EXTT1=
EXTT2=
EXTT3=
EXTT4=
EXTT5=
EXTT6=
EXTT7=
EXTT8=
EXTT9=
PLAYORDER=
